<svg width="580" height="400.00000000000006" xmlns="http://www.w3.org/2000/svg">
 <!-- Created with Method Draw - http://github.com/duopixel/Method-Draw/ -->
 <g>
  <title>background</title>
  <rect fill="#fff" id="canvas_background" height="402" width="582" y="-1" x="-1"/>
 </g>
 <g>
  <title>Layer 1</title>
  <path id="svg_1" d="m291.312431,65.135586c-79.805904,0 -144.499999,56.410725 -144.499999,125.999983c0,69.587796 64.694095,126.000023 144.499999,126.000023c79.806829,0 144.499999,-56.412227 144.499999,-126.000023c0,-69.589257 -64.69317,-125.999983 -144.499999,-125.999983zm12.477818,194.31287l0,17.747423l-19.466774,0l0,-17.547466c-31.944557,-3.814665 -45.94315,-26.701417 -45.94315,-26.701417l19.90469,-14.503185c0,0 12.686429,19.272013 35.652947,19.272013c12.685412,0 22.310118,-5.921153 22.310118,-16.03096c0,-23.657166 -73.065338,-20.788448 -73.065338,-64.663554c0,-19.073669 17.279321,-32.814554 41.130376,-36.055616l0,-17.745649l19.467583,0l0,17.735831c16.623268,1.908154 36.308942,9.537565 36.308942,25.947453l0,12.588267l-25.810867,0l0,-6.103007c0,-6.293488 -9.196269,-10.490246 -19.476138,-10.490246c-13.123501,0 -22.748253,5.721418 -22.748253,13.73268c0,24.221283 73.065315,18.309736 73.065315,64.283327c0.010439,18.88993 -16.175584,35.293125 -41.32945,38.534117l0,-0.00001z" stroke-width="1.5" stroke="#e24118" fill="#000000"/>
 </g>
</svg>